<?xml version="1.0" encoding="UTF-8" standalone="no"?>
<svg
   id="svg"
   width="400"
   height="446.2311557788945"
   viewBox="0, 0, 400,446.2311557788945"
   version="1.1"
   sodipodi:docname="speaker.svg"
   inkscape:version="1.2.2 (b0a8486541, 2022-12-01)"
   xmlns:inkscape="http://www.inkscape.org/namespaces/inkscape"
   xmlns:sodipodi="http://sodipodi.sourceforge.net/DTD/sodipodi-0.dtd"
   xmlns="http://www.w3.org/2000/svg"
   xmlns:svg="http://www.w3.org/2000/svg">
  <defs
     id="defs417" />
  <sodipodi:namedview
     id="namedview415"
     pagecolor="#ffffff"
     bordercolor="#000000"
     borderopacity="0.25"
     inkscape:showpageshadow="2"
     inkscape:pageopacity="0.0"
     inkscape:pagecheckerboard="0"
     inkscape:deskcolor="#d1d1d1"
     showgrid="false"
     inkscape:zoom="0.52887386"
     inkscape:cx="200.42586"
     inkscape:cy="224.06099"
     inkscape:window-width="1440"
     inkscape:window-height="830"
     inkscape:window-x="-6"
     inkscape:window-y="-6"
     inkscape:window-maximized="1"
     inkscape:current-layer="svg" />
  <g
     id="svgg"
     style="fill:#ffffff">
    <path
       id="path0"
       d="M211.967 38.500 C 208.320 40.409,199.725 50.430,163.317 95.220 L 119.095 149.622 77.889 149.693 C 25.426 149.783,21.615 150.356,16.583 158.899 C 14.645 162.189,14.562 164.419,14.260 221.106 C 13.864 295.539,13.663 294.015,24.625 299.497 L 29.648 302.010 74.490 302.513 L 119.332 303.015 163.234 356.784 C 212.103 416.637,211.521 416.057,222.706 416.072 C 230.092 416.082,236.555 413.082,239.950 408.068 L 242.211 404.728 242.211 226.017 L 242.211 47.306 238.953 43.596 C 232.382 36.111,220.732 33.911,211.967 38.500 M261.307 94.462 L 261.307 107.518 268.031 110.566 C 363.686 153.939,364.342 295.249,269.098 340.520 L 261.312 344.221 261.310 357.529 L 261.307 370.837 267.588 368.472 C 395.014 320.489,398.422 137.559,272.864 85.238 C 260.389 80.039,261.307 79.307,261.307 94.462 M261.307 156.886 L 261.307 170.053 267.729 176.989 C 287.523 198.368,292.214 230.933,279.376 257.832 C 276.168 264.554,265.308 279.081,262.761 280.059 C 261.588 280.509,261.307 283.329,261.307 294.617 L 261.307 308.618 267.085 304.691 C 311.059 274.812,321.896 213.798,290.947 170.352 C 284.487 161.283,265.317 143.719,261.879 143.719 C 261.564 143.719,261.307 149.644,261.307 156.886 "
       stroke="none"
       fill="#000000"
       fill-rule="evenodd"
       style="fill:#ffffff" />
  </g>
</svg>
