<?xml version="1.0" encoding="UTF-8" standalone="no"?>
<svg
   id="svg"
   width="400"
   height="446.2311557788945"
   viewBox="0, 0, 400,446.2311557788945"
   version="1.1"
   sodipodi:docname="speaker-muted.svg"
   inkscape:version="1.2.2 (b0a8486541, 2022-12-01)"
   xmlns:inkscape="http://www.inkscape.org/namespaces/inkscape"
   xmlns:sodipodi="http://sodipodi.sourceforge.net/DTD/sodipodi-0.dtd"
   xmlns="http://www.w3.org/2000/svg"
   xmlns:svg="http://www.w3.org/2000/svg">
  <defs
     id="defs144" />
  <sodipodi:namedview
     id="namedview142"
     pagecolor="#ffffff"
     bordercolor="#000000"
     borderopacity="0.25"
     inkscape:showpageshadow="2"
     inkscape:pageopacity="0.0"
     inkscape:pagecheckerboard="0"
     inkscape:deskcolor="#d1d1d1"
     showgrid="false"
     inkscape:zoom="1.3109797"
     inkscape:cx="200.61333"
     inkscape:cy="223.87837"
     inkscape:window-width="1440"
     inkscape:window-height="830"
     inkscape:window-x="-6"
     inkscape:window-y="-6"
     inkscape:window-maximized="1"
     inkscape:current-layer="svgg" />
  <g
     id="svgg">
    <path
       id="path0"
       d="m 211.967,38.5 c -3.647,1.909 -12.242,11.93 -48.65,56.72 l -44.222,54.402 -41.206,0.071 c -52.463,0.09 -56.274,0.663 -61.306,9.206 -1.938,3.29 -2.021,5.52 -2.323,62.207 -0.396,74.433 -0.597,72.909 10.365,78.391 l 5.023,2.513 44.842,0.503 44.842,0.502 43.902,53.769 c 48.869,59.853 48.287,59.273 59.472,59.288 7.386,0.01 13.849,-2.99 17.244,-8.004 l 2.261,-3.34 V 226.017 47.306 l -3.258,-3.71 C 232.382,36.111 220.732,33.911 211.967,38.5"
       stroke="none"
       fill="#000000"
       fill-rule="evenodd"
       sodipodi:nodetypes="cccccccccccccccccc"
       style="fill:#ffffff" />
    <path
       id="path0-1"
       d="m 282.80193,182.93493 c -6.029,3.029 -9.053,11.15101 -6.227,16.724 0.549,1.083 6.726,7.745 13.727,14.806 l 12.729,12.838 -12.729,12.838 c -17.236,17.383 -19.022,22.966 -9.696,30.302 7.239,5.694 11.593,3.78 27.39,-12.046 l 13.029,-13.051 13.537,13.42401 c 15.218,15.091 16.921,16.012 24.352,13.174 5.251,-2.005 7.654,-5.851 7.654,-12.25 v -4.783 l -13.714,-13.817 -13.714,-13.817 12.716,-12.825 c 17.732,-17.883 19.609,-24.888 8.364,-31.208 -7.39,-4.154 -10.309,-2.697 -26.096,13.023 l -13.074,13.019 -12.601,-12.706 c -15.4,-15.527 -18.557,-17.207 -25.647,-13.645"
       stroke="none"
       fill="#000000"
       fill-rule="evenodd"
       sodipodi:nodetypes="ccccccccscsccccccccc"
       style="fill:#ffffff" />
  </g>
</svg>
